<svg width="2967" height="828" xmlns="http://www.w3.org/2000/svg">
 <g>
  <title>Layer 1</title>
  <text fill="#000000" stroke="#000" stroke-width="0" x="238" y="454" id="svg_4" font-size="24" font-family="Noto Sans JP" text-anchor="start" xml:space="preserve">Objective</text>
  <text fill="#000000" stroke="#000" stroke-width="0" x="96" y="53" id="svg_5" font-size="24" font-family="Noto Sans JP" text-anchor="start" xml:space="preserve">Player</text>
  <text fill="#000000" stroke="#000" stroke-width="0" x="627" y="241" id="svg_7" font-size="24" font-family="Noto Sans JP" text-anchor="start" xml:space="preserve">Story</text>
  <text fill="#000000" stroke="#000" stroke-width="0" x="235" y="703" id="svg_8" font-size="24" font-family="Noto Sans JP" text-anchor="start" xml:space="preserve">Challenges</text>
  <text fill="#000000" stroke="#000" stroke-width="0" x="1006" y="67" id="svg_9" font-size="24" font-family="Noto Sans JP" text-anchor="start" xml:space="preserve">Characters</text>
  <text fill="#000000" stroke="#000" stroke-width="0" x="95" y="88" id="svg_10" font-size="24" font-family="Noto Sans JP" text-anchor="start" xml:space="preserve">Witch</text>
  <text fill="#000000" stroke="#000" stroke-width="0" x="86" y="502" id="svg_11" font-size="24" font-family="Noto Sans JP" text-anchor="start" xml:space="preserve">Clear the Haunted House of Angry spirits</text>
  <text fill="#000000" stroke="#000" stroke-width="0" x="550" y="276" id="svg_12" font-size="24" font-family="Noto Sans JP" text-anchor="start" xml:space="preserve">You go to Witch school</text>
  <text fill="#000000" stroke="#000" stroke-width="0" x="538" y="317" id="svg_13" font-size="24" font-family="Noto Sans JP" text-anchor="start" xml:space="preserve">This is your Final Project</text>
  <text fill="#000000" stroke="#000" stroke-width="0" x="462" y="391" id="svg_14" font-size="24" font-family="Noto Sans JP" text-anchor="start" xml:space="preserve">You've been set up/someone betrays you?</text>
  <text fill="#000000" stroke="#000" stroke-width="0" x="501" y="355" id="svg_15" font-size="24" font-family="Noto Sans JP" text-anchor="start" xml:space="preserve">Your supervisor brought you here</text>
  <text fill="#000000" stroke="#000" stroke-width="0" x="1009" y="136" id="svg_16" font-size="24" font-family="Noto Sans JP" text-anchor="start" xml:space="preserve">Familiar?</text>
  <text fill="#000000" stroke="#000" stroke-width="0" x="523" y="119" id="svg_17" font-size="24" font-family="Noto Sans JP" text-anchor="start" xml:space="preserve">Maybe backstabbing?</text>
  <polyline fill="none" stroke="#000" stroke-width="0" points="1379,208 1378,208 1377,208 " id="svg_24" stroke-linecap="round"/>
  <g id="svg_31" transform="rotate(-29.4464, 486.5, 247.432)">
   <path fill="none" stroke="#000" id="svg_29" d="m412.80757,343.12652c0,-1.52006 1.24052,-6.17348 4.51291,-15.20059c2.78641,-7.68632 5.01229,-15.54922 7.52151,-21.28083c2.1942,-5.01214 5.28462,-6.98314 7.52151,-10.64041c2.50096,-4.08894 5.83955,-10.75105 10.53012,-18.24071c2.90035,-4.6312 6.01721,-10.64041 12.03442,-19.76077c6.01721,-9.12035 13.53872,-18.24071 19.55593,-25.841c6.01721,-7.6003 12.46191,-14.79193 19.55593,-22.80089c6.42395,-7.25243 9.96646,-14.30926 16.54733,-19.76077c4.19449,-3.47467 6.01721,-6.08024 7.52151,-7.6003c1.5043,-1.52006 4.51291,-4.56018 9.02581,-7.6003l1.5043,-1.52006l1.5043,0"/>
   <path fill="none" stroke="#000" id="svg_30" d="m505.81743,155.31479c1.69922,0 3.39844,0 8.4961,0c6.79688,0 11.89454,-1.46376 18.69142,-1.46376c5.09766,0 11.89454,-1.46376 16.9922,-1.46376c3.39844,0 10.19532,-1.46376 10.19532,0c0,1.46376 -1.42708,1.48266 -1.69922,2.92752c-1.72141,9.13809 -5.09766,17.56513 -6.79688,24.88393l-1.69922,4.39128l0,1.46376l0,1.46376"/>
  </g>
  <g id="svg_32" transform="rotate(-47.0199, 856.5, 124.278)">
   <path fill="none" stroke="#000" id="svg_27" d="m920.52367,209.97876c0,-1.44711 -1.16037,-5.8772 -4.22134,-14.47108c-2.60639,-7.31744 -4.68846,-14.80299 -7.03557,-20.25952c-2.05244,-4.7716 -4.94319,-6.64801 -7.03557,-10.12976c-2.33938,-3.8927 -5.46227,-10.23509 -9.84979,-17.3653c-2.71297,-4.40894 -5.62845,-10.12976 -11.25691,-18.81241c-5.62845,-8.68265 -12.66402,-17.3653 -18.29247,-24.60084c-5.62845,-7.23554 -11.65678,-14.08204 -18.29247,-21.70663c-6.00892,-6.90437 -9.32255,-13.62253 -15.47825,-18.81241c-3.9235,-3.30792 -5.62845,-5.78843 -7.03557,-7.23554c-1.40711,-1.44711 -4.22134,-4.34133 -8.44268,-7.23554l-1.40711,-1.44711l-1.40711,0"/>
   <path fill="none" stroke="#000" id="svg_28" d="m837.50399,42.11418c-1.40711,0 -2.81423,0 -7.03557,0c-5.62845,0 -9.84979,-1.44711 -15.47825,-1.44711c-4.22134,0 -9.84979,-1.44711 -14.07113,-1.44711c-2.81423,0 -8.44268,-1.44711 -8.44268,0c0,1.44711 1.18176,1.46579 1.40711,2.89422c1.42549,9.03414 4.22134,17.3653 5.62845,24.60084l1.40711,4.34133l0,1.44711l0,1.44711"/>
  </g>
  <text fill="#000000" stroke="#000" stroke-width="0" x="176" y="737.5" id="svg_33" font-size="24" font-family="Noto Sans JP" text-anchor="start" xml:space="preserve">Environmental Hazards</text>
  <text fill="#000000" stroke="#000" stroke-width="0" x="121" y="543.5" id="svg_41" font-size="24" font-family="Noto Sans JP" text-anchor="start" xml:space="preserve">Collect as much essence as possible</text>
  <text fill="#000000" stroke="#000" stroke-width="0" x="139" y="628.5" id="svg_42" font-size="24" font-family="Noto Sans JP" text-anchor="start" xml:space="preserve">Complete the Cleansing Ritual</text>
  <text fill="#000000" stroke="#000" stroke-width="0" x="86" y="585.5" id="svg_43" font-size="24" font-family="Noto Sans JP" text-anchor="start" xml:space="preserve">Find and use materials to aid performance</text>
  <text fill="#000000" stroke="#000" stroke-width="0" x="1007" y="97.5" id="svg_44" font-size="24" font-family="Noto Sans JP" text-anchor="start" xml:space="preserve">Supervisor</text>
  <text fill="#000000" stroke="#000" stroke-width="0" x="1010" y="167.5" id="svg_45" font-size="24" font-family="Noto Sans JP" text-anchor="start" xml:space="preserve">Shopkeep?</text>
  <text fill="#000000" stroke="#000" stroke-width="0" x="1009" y="209.5" id="svg_46" font-size="24" font-family="Noto Sans JP" text-anchor="start" xml:space="preserve">Different Spirits</text>
  <text fill="#000000" stroke="#000" stroke-width="0" x="94.5" y="119.5" id="svg_48" font-size="24" font-family="Noto Sans JP" text-anchor="start" xml:space="preserve">Four moves (maybe?)</text>
  <text fill="#000000" stroke="#000" stroke-width="0" x="95.5" y="151.5" id="svg_49" font-size="24" font-family="Noto Sans JP" text-anchor="start" xml:space="preserve">Attack, spell, block, and seal</text>
  <path fill="none" stroke="#000" stroke-width="2" id="svg_50" d="m1009.5,109.5c-1,0 -2,0 -3,0c-1,0 -3,0 -5,0c-2,0 -3,0 -4,0c-2,0 -3.69342,0.4588 -5,1c-0.92389,0.38268 -1.29291,0.29289 -2,1c-0.70709,0.70711 -1.29291,0.29289 -2,1c-0.70709,0.70711 -1.4588,1.69344 -2,3c-0.38269,0.92388 -1,2 -1,3c0,1 -1,2 -1,3c0,1 0.38269,2.07612 0,3c-0.5412,1.30656 -1.29291,1.29289 -2,2c-0.70709,0.70711 -1.29291,1.29289 -2,2c-0.70709,0.70711 -1.18604,1.69255 -3,3c-1.14728,0.8269 -1,2 -2,2c-1,0 -1.29291,0.29289 -2,1c-0.70709,0.70711 -1.07611,0.61731 -2,1c-1.30658,0.5412 -2,1 -3,1c-1,0 -2,0 -1,0c1,0 1,1 2,1c1,0 2.07611,-0.38269 3,0c1.30658,0.5412 3.29291,0.29289 4,1c0.70709,0.70711 1,1 2,1c1,0 1.29291,0.29289 2,1c0.70709,0.70711 1.29291,0.29289 2,1c0.70709,0.70711 0.29291,1.29289 1,2c0.70709,0.70711 1.29291,0.29289 2,1c0.70709,0.70711 0,2 0,3c0,1 0,2 0,3c0,1 0.38269,2.07613 0,3c-0.5412,1.30656 -1,2 -1,3c0,1 -1,1 -1,2c0,1 0,2 0,3c0,1 0,2 0,3c0,1 0.4588,1.69344 1,3c0.38269,0.92387 0.61731,1.07613 1,2c0.5412,1.30656 1.29291,1.29289 2,2c0.70709,0.70711 1.29291,0.29289 2,1c0.70709,0.70711 1.29291,0.29289 2,1c0.70709,0.70711 1.29291,0.29289 2,1c0.70709,0.70711 1.29291,0.29289 2,1c0.70709,0.70711 1,1 2,1c1,0 1,1 2,1c2,0 3,0 4,0c1,0 2,0 3,0l1,0"/>
  <text fill="#000000" stroke="#000" stroke-width="0" x="185.5" y="770.5" id="svg_51" font-size="24" font-family="Noto Sans JP" text-anchor="start" xml:space="preserve">Platforming sections?</text>
  <text fill="#000000" stroke="#000" stroke-width="0" x="136.5" y="805" id="svg_52" font-size="24" font-family="Noto Sans JP" text-anchor="start" xml:space="preserve">Some kind of minigame maybe?</text>
  <text fill="#000000" stroke="#000" stroke-width="0" x="1392.5" y="332" id="svg_53" font-size="24" font-family="Noto Sans JP" text-anchor="start" xml:space="preserve">Game</text>
  <line fill="none" stroke="#000" x1="1462.5" y1="335" x2="1619.5" y2="387" id="svg_55" stroke-linecap="round"/>
  <line fill="none" stroke="#000" x1="1426.5" y1="352" x2="1458.5" y2="492" id="svg_56" stroke-linecap="round"/>
  <text fill="#000000" stroke="#000" stroke-width="0" x="1628.5" y="397" id="svg_58" font-size="24" font-family="Noto Sans JP" text-anchor="start" xml:space="preserve">Gameplay</text>
  <line fill="none" stroke="#000" x1="1763.5" y1="509.00001" x2="2014.83333" y2="496.47621" id="svg_61" stroke-linecap="round"/>
  <text fill="#000000" stroke="#000" stroke-width="0" x="1406.5" y="521" id="svg_64" font-size="24" font-family="Noto Sans JP" text-anchor="start" xml:space="preserve">Interface</text>
  <text fill="#000000" stroke="#000" x="1676.5" y="520" id="svg_67" stroke-width="0" font-size="24" font-family="Noto Sans JP" text-anchor="start" xml:space="preserve">Controls</text>
  <line fill="none" stroke="#000" x1="1594.5" y1="453" x2="1641.5" y2="410" id="svg_68" stroke-linecap="round"/>
  <line fill="none" stroke="#000" x1="1862.27523" y1="584.34901" x2="1886.50982" y2="292.49905" id="svg_69" stroke-linecap="round" transform="rotate(-75.5294, 1874.39, 438.424)"/>
  <line fill="none" stroke="#000" x1="1519.5" y1="501" x2="1555.5" y2="476" id="svg_70" stroke-linecap="round"/>
  <line fill="none" stroke="#000" x1="1504.5" y1="515" x2="1668.5" y2="513" id="svg_71" stroke-linecap="round"/>
  <text fill="#000000" stroke="#000" stroke-width="0" x="1549.5" y="470" id="svg_72" font-size="24" font-family="Noto Sans JP" text-anchor="start" xml:space="preserve">HUD</text>
  <line fill="none" stroke="#000" x1="1457.5" y1="552" x2="1554.5" y2="652" id="svg_73"/>
  <text fill="#000000" stroke="#000" stroke-width="0" x="1572.5" y="663" id="svg_74" font-size="24" font-family="Noto Sans JP" text-anchor="start" xml:space="preserve">Menus</text>
  <text fill="#000000" stroke="#000" stroke-width="0" x="2019.21429" y="501.80953" id="svg_75" font-size="24" font-family="Noto Sans JP" text-anchor="start" xml:space="preserve">Player</text>
  <line fill="none" stroke="#000" x1="1687.5" y1="371" x2="1686.5" y2="207" id="svg_76"/>
  <text fill="#000000" stroke="#000" stroke-width="0" x="1662.5" y="191" id="svg_77" font-size="24" font-family="Noto Sans JP" text-anchor="start" xml:space="preserve">Map</text>
  <line fill="none" stroke="#000" x1="1731.73826" y1="183.14289" x2="1858.40494" y2="183.14289" id="svg_79" stroke-linecap="round"/>
  <text fill="#000000" stroke="#000" x="1879.35732" y="191.71432" id="svg_80" stroke-width="0" font-size="24" font-family="Noto Sans JP" text-anchor="start" xml:space="preserve">Floor</text>
  <line fill="none" stroke="#000" x1="1952.7782" y1="186.09283" x2="2098.09761" y2="149.38687" id="svg_81" stroke-linecap="round" transform="rotate(0.288918, 2025.44, 167.74)"/>
  <text fill="#000000" stroke="#000" x="2149.39391" y="263.43588" id="svg_82" stroke-width="0" font-size="24" font-family="Noto Sans JP" text-anchor="start" xml:space="preserve">Tile</text>
  <text fill="#000000" stroke="#000" x="1859.35732" y="81.23812" id="svg_83" stroke-width="0" font-size="24" font-family="Noto Sans JP" text-anchor="start" xml:space="preserve">Generator</text>
  <line fill="none" stroke="#000" x1="1696.50017" y1="166.95241" x2="1834.59541" y2="86.95241" id="svg_84" stroke-linecap="round"/>
  <line fill="none" stroke="#000" x1="1964.11924" y1="80.28574" x2="2092.94709" y2="126.00006" id="svg_85" stroke-linecap="round"/>
  <line fill="none" stroke="#000" x1="2070.96928" y1="482.53846" x2="2164.23107" y2="282.53839" id="svg_86" stroke-linecap="round"/>
  <text fill="#000000" stroke="#000" x="1811.26207" y="284.27843" id="svg_87" stroke-width="0" font-size="24" font-family="Noto Sans JP" text-anchor="start" xml:space="preserve">Enemy</text>
  <line fill="none" stroke="#000" x1="1726.97636" y1="371.71433" x2="1823.16684" y2="302.19051" id="svg_88" stroke-linecap="round"/>
  <line fill="none" stroke="#000" x1="1890.78588" y1="270.76194" x2="2138.73459" y2="257.20878" id="svg_89" stroke-linecap="round"/>
  <text fill="#000000" stroke="#000" x="1974.59545" y="313.61909" id="svg_91" stroke-width="0" font-size="24" font-family="Noto Sans JP" text-anchor="start" xml:space="preserve">Health</text>
  <text style="cursor: move;" fill="#000000" stroke="#000" x="1889.83354" y="391.71433" id="svg_92" stroke-width="0" font-size="24" font-family="Noto Sans JP" text-anchor="start" xml:space="preserve">Ability</text>
  <line fill="none" stroke="#000" x1="2032.69069" y1="479.33338" x2="1937.45259" y2="405.04766" id="svg_93" stroke-linecap="round"/>
  <line fill="none" stroke="#000" x1="1862.21449" y1="298.38099" x2="1911.7383" y2="365.04766" id="svg_94" stroke-linecap="round"/>
  <line fill="none" stroke="#000" x1="1888.88115" y1="283.14289" x2="1962.21449" y2="302.19051" id="svg_95" stroke-linecap="round"/>
  <line fill="none" stroke="#000" x1="2053.64307" y1="481.23815" x2="2019.35735" y2="326.00004" id="svg_96" stroke-linecap="round"/>
  <line fill="none" stroke="#000" x1="1971.7383" y1="370.76195" x2="1997.45259" y2="324.09528" id="svg_97" stroke-linecap="round"/>
  <text xml:space="preserve" text-anchor="start" font-family="Noto Sans JP" font-size="24" stroke-width="0" id="svg_1" y="144.46109" x="2104.95861" stroke="#000" fill="#000000">Room</text>
  <line id="svg_2" y2="233.69179" x2="2168.03549" y1="159.07647" x1="2142.65089" stroke="#000" fill="none"/>
  <line id="svg_6" y2="399.07628" x2="2198.03536" y1="278.30714" x1="2177.26615" stroke="#000" fill="none"/>
  <text xml:space="preserve" text-anchor="start" font-family="Noto Sans JP" font-size="24" id="svg_18" y="421.38396" x="2163.42001" stroke-width="0" stroke="#000" fill="#000000">Hazard</text>
  <line id="svg_19" y2="431.38395" x2="2174.95846" y1="492.92236" x1="2089.57391" stroke="#000" fill="none"/>
  <text xml:space="preserve" text-anchor="start" font-family="Noto Sans JP" font-size="24" id="svg_20" y="467.53777" x="2304.95836" stroke-width="0" stroke="#000" fill="#000000">Interactable</text>
  <line id="svg_21" y2="436.76856" x2="2340.34295" y1="265.23023" x1="2194.18921" stroke="#000" fill="none"/>
  <line id="svg_22" y2="466.76854" x2="2297.26606" y1="507.53774" x1="2083.42007" stroke="#000" fill="none"/>
 </g>

</svg>