<svg width="2967" height="828" xmlns="http://www.w3.org/2000/svg">

 <g>
  <title>Layer 1</title>
  <text xml:space="preserve" text-anchor="start" font-family="Noto Sans JP" font-size="24" id="svg_4" y="454" x="238" stroke-width="0" stroke="#000" fill="#000000">Objective</text>
  <text xml:space="preserve" text-anchor="start" font-family="Noto Sans JP" font-size="24" id="svg_5" y="53" x="96" stroke-width="0" stroke="#000" fill="#000000">Player</text>
  <text xml:space="preserve" text-anchor="start" font-family="Noto Sans JP" font-size="24" id="svg_7" y="241" x="627" stroke-width="0" stroke="#000" fill="#000000">Story</text>
  <text xml:space="preserve" text-anchor="start" font-family="Noto Sans JP" font-size="24" id="svg_8" y="703" x="235" stroke-width="0" stroke="#000" fill="#000000">Challenges</text>
  <text xml:space="preserve" text-anchor="start" font-family="Noto Sans JP" font-size="24" id="svg_9" y="67" x="1006" stroke-width="0" stroke="#000" fill="#000000">Characters</text>
  <text xml:space="preserve" text-anchor="start" font-family="Noto Sans JP" font-size="24" id="svg_10" y="88" x="95" stroke-width="0" stroke="#000" fill="#000000">Witch</text>
  <text xml:space="preserve" text-anchor="start" font-family="Noto Sans JP" font-size="24" id="svg_11" y="502" x="86" stroke-width="0" stroke="#000" fill="#000000">Clear the Haunted House of Angry spirits</text>
  <text style="cursor: move;" xml:space="preserve" text-anchor="start" font-family="Noto Sans JP" font-size="24" id="svg_12" y="276" x="550" stroke-width="0" stroke="#000" fill="#000000">You go to Witch school</text>
  <text xml:space="preserve" text-anchor="start" font-family="Noto Sans JP" font-size="24" id="svg_13" y="317" x="538" stroke-width="0" stroke="#000" fill="#000000">This is your Final Project</text>
  <text xml:space="preserve" text-anchor="start" font-family="Noto Sans JP" font-size="24" id="svg_14" y="391" x="462" stroke-width="0" stroke="#000" fill="#000000">You've been set up/someone betrays you?</text>
  <text xml:space="preserve" text-anchor="start" font-family="Noto Sans JP" font-size="24" id="svg_15" y="355" x="501" stroke-width="0" stroke="#000" fill="#000000">Your supervisor brought you here</text>
  <text style="cursor: move;" xml:space="preserve" text-anchor="start" font-family="Noto Sans JP" font-size="24" id="svg_16" y="136" x="1009" stroke-width="0" stroke="#000" fill="#000000">Familiar?</text>
  <text xml:space="preserve" text-anchor="start" font-family="Noto Sans JP" font-size="24" id="svg_17" y="119" x="523" stroke-width="0" stroke="#000" fill="#000000">Maybe backstabbing?</text>
  <polyline stroke-linecap="round" id="svg_24" points="1379,208 1378,208 1377,208 " stroke-width="0" stroke="#000" fill="none"/>
  <polyline stroke-linecap="round" id="svg_26" points="1227,391 1228,391 " stroke-width="0" stroke="#000" fill="none"/>
  <g transform="rotate(-29.4464, 486.5, 247.432)" id="svg_31">
   <path d="m412.80757,343.12652c0,-1.52006 1.24052,-6.17348 4.51291,-15.20059c2.78641,-7.68632 5.01229,-15.54922 7.52151,-21.28083c2.1942,-5.01214 5.28462,-6.98314 7.52151,-10.64041c2.50096,-4.08894 5.83955,-10.75105 10.53012,-18.24071c2.90035,-4.6312 6.01721,-10.64041 12.03442,-19.76077c6.01721,-9.12035 13.53872,-18.24071 19.55593,-25.841c6.01721,-7.6003 12.46191,-14.79193 19.55593,-22.80089c6.42395,-7.25243 9.96646,-14.30926 16.54733,-19.76077c4.19449,-3.47467 6.01721,-6.08024 7.52151,-7.6003c1.5043,-1.52006 4.51291,-4.56018 9.02581,-7.6003l1.5043,-1.52006l1.5043,0" id="svg_29" stroke="#000" fill="none"/>
   <path d="m505.81743,155.31479c1.69922,0 3.39844,0 8.4961,0c6.79688,0 11.89454,-1.46376 18.69142,-1.46376c5.09766,0 11.89454,-1.46376 16.9922,-1.46376c3.39844,0 10.19532,-1.46376 10.19532,0c0,1.46376 -1.42708,1.48266 -1.69922,2.92752c-1.72141,9.13809 -5.09766,17.56513 -6.79688,24.88393l-1.69922,4.39128l0,1.46376l0,1.46376" id="svg_30" stroke="#000" fill="none"/>
  </g>
  <g transform="rotate(-47.0199, 856.5, 124.278)" id="svg_32">
   <path d="m920.52367,209.97876c0,-1.44711 -1.16037,-5.8772 -4.22134,-14.47108c-2.60639,-7.31744 -4.68846,-14.80299 -7.03557,-20.25952c-2.05244,-4.7716 -4.94319,-6.64801 -7.03557,-10.12976c-2.33938,-3.8927 -5.46227,-10.23509 -9.84979,-17.3653c-2.71297,-4.40894 -5.62845,-10.12976 -11.25691,-18.81241c-5.62845,-8.68265 -12.66402,-17.3653 -18.29247,-24.60084c-5.62845,-7.23554 -11.65678,-14.08204 -18.29247,-21.70663c-6.00892,-6.90437 -9.32255,-13.62253 -15.47825,-18.81241c-3.9235,-3.30792 -5.62845,-5.78843 -7.03557,-7.23554c-1.40711,-1.44711 -4.22134,-4.34133 -8.44268,-7.23554l-1.40711,-1.44711l-1.40711,0" id="svg_27" stroke="#000" fill="none"/>
   <path d="m837.50399,42.11418c-1.40711,0 -2.81423,0 -7.03557,0c-5.62845,0 -9.84979,-1.44711 -15.47825,-1.44711c-4.22134,0 -9.84979,-1.44711 -14.07113,-1.44711c-2.81423,0 -8.44268,-1.44711 -8.44268,0c0,1.44711 1.18176,1.46579 1.40711,2.89422c1.42549,9.03414 4.22134,17.3653 5.62845,24.60084l1.40711,4.34133l0,1.44711l0,1.44711" id="svg_28" stroke="#000" fill="none"/>
  </g>
  <text xml:space="preserve" text-anchor="start" font-family="Noto Sans JP" font-size="24" id="svg_33" y="737.5" x="176" stroke-width="0" stroke="#000" fill="#000000">Environmental Hazards</text>
  <text style="cursor: move;" xml:space="preserve" text-anchor="start" font-family="Noto Sans JP" font-size="24" id="svg_41" y="543.5" x="121" stroke-width="0" stroke="#000" fill="#000000">Collect as much essence as possible</text>
  <text xml:space="preserve" text-anchor="start" font-family="Noto Sans JP" font-size="24" id="svg_42" y="628.5" x="139" stroke-width="0" stroke="#000" fill="#000000">Complete the Cleansing Ritual</text>
  <text xml:space="preserve" text-anchor="start" font-family="Noto Sans JP" font-size="24" id="svg_43" y="585.5" x="86" stroke-width="0" stroke="#000" fill="#000000">Find and use materials to aid performance</text>
  <text xml:space="preserve" text-anchor="start" font-family="Noto Sans JP" font-size="24" id="svg_44" y="97.5" x="1007" stroke-width="0" stroke="#000" fill="#000000">Supervisor</text>
  <text xml:space="preserve" text-anchor="start" font-family="Noto Sans JP" font-size="24" id="svg_45" y="167.5" x="1010" stroke-width="0" stroke="#000" fill="#000000">Shopkeep?</text>
  <text style="cursor: move;" xml:space="preserve" text-anchor="start" font-family="Noto Sans JP" font-size="24" id="svg_46" y="209.5" x="1009" stroke-width="0" stroke="#000" fill="#000000">Different Spirits</text>
  <text style="cursor: move;" xml:space="preserve" text-anchor="start" font-family="Noto Sans JP" font-size="24" id="svg_48" y="119.5" x="94.5" stroke-width="0" stroke="#000" fill="#000000">Four moves (maybe?)</text>
  <text style="cursor: move;" xml:space="preserve" text-anchor="start" font-family="Noto Sans JP" font-size="24" id="svg_49" y="151.5" x="95.5" stroke-width="0" stroke="#000" fill="#000000">Attack, spell, block, and seal</text>
  <path d="m1009.5,109.5c-1,0 -2,0 -3,0c-1,0 -3,0 -5,0c-2,0 -3,0 -4,0c-2,0 -3.69342,0.4588 -5,1c-0.92389,0.38268 -1.29291,0.29289 -2,1c-0.70709,0.70711 -1.29291,0.29289 -2,1c-0.70709,0.70711 -1.4588,1.69344 -2,3c-0.38269,0.92388 -1,2 -1,3c0,1 -1,2 -1,3c0,1 0.38269,2.07612 0,3c-0.5412,1.30656 -1.29291,1.29289 -2,2c-0.70709,0.70711 -1.29291,1.29289 -2,2c-0.70709,0.70711 -1.18604,1.69255 -3,3c-1.14728,0.8269 -1,2 -2,2c-1,0 -1.29291,0.29289 -2,1c-0.70709,0.70711 -1.07611,0.61731 -2,1c-1.30658,0.5412 -2,1 -3,1c-1,0 -2,0 -1,0c1,0 1,1 2,1c1,0 2.07611,-0.38269 3,0c1.30658,0.5412 3.29291,0.29289 4,1c0.70709,0.70711 1,1 2,1c1,0 1.29291,0.29289 2,1c0.70709,0.70711 1.29291,0.29289 2,1c0.70709,0.70711 0.29291,1.29289 1,2c0.70709,0.70711 1.29291,0.29289 2,1c0.70709,0.70711 0,2 0,3c0,1 0,2 0,3c0,1 0.38269,2.07613 0,3c-0.5412,1.30656 -1,2 -1,3c0,1 -1,1 -1,2c0,1 0,2 0,3c0,1 0,2 0,3c0,1 0.4588,1.69344 1,3c0.38269,0.92387 0.61731,1.07613 1,2c0.5412,1.30656 1.29291,1.29289 2,2c0.70709,0.70711 1.29291,0.29289 2,1c0.70709,0.70711 1.29291,0.29289 2,1c0.70709,0.70711 1.29291,0.29289 2,1c0.70709,0.70711 1.29291,0.29289 2,1c0.70709,0.70711 1,1 2,1c1,0 1,1 2,1c2,0 3,0 4,0c1,0 2,0 3,0l1,0" id="svg_50" stroke-width="2" stroke="#000" fill="none"/>
  <text xml:space="preserve" text-anchor="start" font-family="Noto Sans JP" font-size="24" id="svg_51" y="770.5" x="185.5" stroke-width="0" stroke="#000" fill="#000000">Platforming sections?</text>
  <text xml:space="preserve" text-anchor="start" font-family="Noto Sans JP" font-size="24" id="svg_52" y="805" x="136.5" stroke-width="0" stroke="#000" fill="#000000">Some kind of minigame maybe?</text>
 </g>
</svg>